<svg width="38" height="22" viewBox="0 0 38 22" fill="none" xmlns="http://www.w3.org/2000/svg">
    <path fill="#0271BC" d="m.005-14 36.905-.15.146 35.993-36.904.15z"/>
    <path fill-rule="evenodd" clip-rule="evenodd" d="m12.643-.145 11.742-.047c.503-.002.837-.331.835-.822-.002-.49-.338-.817-.842-.814l-11.742.047c-.503.002-.837.331-.835.822.002.49.338.817.841.814zM24.398 3.08l-11.742.048c-.503.002-.838.33-.836.821.002.491.34.817.842.815l11.743-.048c.503-.002.837-.33.835-.822-.002-.49-.338-.816-.842-.814zM12.676 8.036l11.742-.048c.504-.002.84.324.842.815.002.49-.332.82-.835.821l-11.743.048c-.503.002-.84-.324-.841-.815-.002-.49.332-.819.835-.821z" fill="#fff"/>
</svg>
